Coordinates
version=1
nRows=31
nColumns=38
inDegrees=no

Units are S.I. units (second, meters, Newtons, ...)
If the header above contains a line with 'inDegrees', this indicates whether rotational values are in degrees (yes) or radians (no).

endheader
time	pelvis_tilt	pelvis_list	pelvis_rotation	pelvis_tx	pelvis_ty	pelvis_tz	hip_flexion_r	hip_adduction_r	hip_rotation_r	knee_angle_r	ankle_angle_r	subtalar_angle_r	mtp_angle_r	hip_flexion_l	hip_adduction_l	hip_rotation_l	knee_angle_l	ankle_angle_l	subtalar_angle_l	mtp_angle_l	lumbar_extension	lumbar_bending	lumbar_rotation	arm_flex_r	arm_add_r	arm_rot_r	elbow_flex_r	pro_sup_r	wrist_flex_r	wrist_dev_r	arm_flex_l	arm_add_l	arm_rot_l	elbow_flex_l	pro_sup_l	wrist_flex_l	wrist_dev_l
5	2.68125	1.36617	-1.12365	0.66275	-0.37849	0.944121	0.193881	-0.0308545	-0.271526	0.561965	0.0873448	0	0	-0.382419	-0.0211896	-0.246624	0.017194	0.0990453	0	0	-0.437447	-0.00132783	0.0181574	0.507674	-0.402978	0.00160221	1.64531	0.836897	0	0	0.58645	-0.315178	0.361412	1.61145	1.5708	0	0
5.01	2.66963	1.36312	-1.11214	0.662213	-0.376933	0.944144	0.198252	-0.0251548	-0.274778	0.546717	0.0870893	0	0	-0.387261	-0.0241032	-0.248006	0.0154354	0.100403	0	0	-0.438951	0.00204997	0.0124164	0.531211	-0.428084	0.178522	1.52322	1.5708	0	0	0.587543	-0.316557	0.35654	1.60946	1.5708	0	0
5.02	2.66007	1.3615	-1.10285	0.661813	-0.375364	0.9441	0.204427	-0.0202188	-0.276635	0.532668	0.0863253	0	0	-0.390051	-0.0262559	-0.249184	0.0152734	0.101935	0	0	-0.441056	0.00498762	0.0116923	0.538256	-0.426684	0.181571	1.51647	1.5708	0	0	0.593244	-0.314406	0.355854	1.6046	1.5708	0	0
5.03	2.65137	1.35982	-1.09433	0.6614	-0.37381	0.944065	0.210459	-0.015481	-0.278599	0.518572	0.0856378	0	0	-0.392631	-0.0282859	-0.250247	0.0155836	0.103026	0	0	-0.443327	0.00802156	0.010258	0.546821	-0.425241	0.187152	1.50805	1.5708	0	0	0.597874	-0.313865	0.355259	1.60018	1.5708	0	0
5.04	2.64097	1.35885	-1.08512	0.661185	-0.372124	0.943982	0.217209	-0.0103774	-0.279981	0.504174	0.0848585	0	0	-0.393884	-0.0302851	-0.249623	0.0180739	0.10383	0	0	-0.448766	0.0110774	0.0073372	0.545384	-0.394061	0.0248328	1.61318	0.844419	0	0	0.581221	-0.29892	0.181857	1.71482	0.928841	0	0
5.05	2.63147	1.35632	-1.07723	0.660848	-0.370422	0.943922	0.222358	-0.00471199	-0.280449	0.48985	0.084128	0	0	-0.397926	-0.0322344	-0.254305	0.0170139	0.105431	0	0	-0.449497	0.0137574	0.00217629	0.570778	-0.417864	0.205169	1.48974	1.5708	0	0	0.581636	-0.301588	0.176312	1.71266	0.92396	0	0
5.06	2.60955	1.36596	-1.06821	0.661736	-0.370119	0.942849	0.238987	-0.00276418	-0.290662	0.466613	0.0774132	0	0	-0.384455	-0.0280177	-0.265067	0.0243342	0.109894	0	0	-0.440256	0.00915769	0.0168485	0.575316	-0.419218	0.201537	1.48451	1.5708	0	0	0.608894	-0.31825	0.353749	1.59133	1.5708	0	0
5.07	2.61259	1.35411	-1.06216	0.660694	-0.36698	0.943666	0.235216	0.00631686	-0.278879	0.462178	0.0803779	0	0	-0.398883	-0.0364219	-0.25759	0.0257322	0.111678	0	0	-0.451774	0.018989	0.0117447	0.566515	-0.391594	0.0350252	1.59213	0.865846	0	0	0.612837	-0.316987	0.353806	1.58842	1.5708	0	0
5.08	2.58881	1.36335	-1.05139	0.66141	-0.366433	0.942478	0.251006	0.00888966	-0.288704	0.439196	0.0746689	0	0	-0.387288	-0.0321455	-0.271877	0.0296091	0.116321	0	0	-0.442672	0.0146006	0.014517	0.596016	-0.414899	0.217049	1.46571	1.5708	0	0	0.613923	-0.319589	0.347649	1.58649	1.5708	0	0
5.09	2.59389	1.35076	-1.04652	0.660193	-0.363103	0.943302	0.246171	0.0170636	-0.278178	0.435985	0.0794843	0	0	-0.404209	-0.0405642	-0.266334	0.0269301	0.117259	0	0	-0.452716	0.0243766	0.00493252	0.60306	-0.412308	0.222038	1.45694	1.5708	0	0	0.616122	-0.320952	0.348404	1.58367	1.5708	0	0
5.1	2.57216	1.36032	-1.0379	0.661013	-0.362477	0.942185	0.261643	0.019202	-0.288656	0.4136	0.0735203	0	0	-0.392534	-0.0357649	-0.273647	0.0318733	0.120127	0	0	-0.445496	0.0197349	0.0128223	0.615248	-0.410281	0.228236	1.44668	1.5708	0	0	0.621392	-0.320988	0.347059	1.57987	1.5708	0	0
5.11	2.57523	1.34683	-1.03147	0.659905	-0.359128	0.943112	0.255503	0.0284645	-0.277268	0.410008	0.0761421	0	0	-0.408286	-0.0459085	-0.272399	0.0328701	0.123178	0	0	-0.456011	0.0302502	0.00402604	0.624235	-0.4086	0.236426	1.43569	1.5708	0	0	0.624448	-0.323028	0.347527	1.57651	1.5708	0	0
5.12	2.56781	1.34735	-1.02583	0.659883	-0.356857	0.942829	0.26262	0.0322384	-0.275591	0.39981	0.0760512	0	0	-0.408447	-0.0470547	-0.275756	0.0358825	0.126102	0	0	-0.458934	0.0317533	0.0013719	0.620595	-0.378921	0.0863164	1.53771	1.06355	0	0	0.610625	-0.305102	0.179554	1.68563	0.991281	0	0
5.13	2.56581	1.34497	-1.02544	0.659664	-0.354886	0.942739	0.266358	0.0361329	-0.274546	0.389795	0.0758046	0	0	-0.41127	-0.0485728	-0.27971	0.0398173	0.129075	0	0	-0.458139	0.033226	0.00175294	0.645061	-0.403041	0.248084	1.4144	1.5708	0	0	0.632075	-0.324215	0.342566	1.56796	1.5708	0	0
5.14	2.55372	1.35624	-1.02603	0.660543	-0.354011	0.94145	0.282968	0.0352563	-0.28322	0.372962	0.0711312	0	0	-0.39903	-0.041138	-0.288178	0.0455631	0.132186	0	0	-0.450175	0.0255444	0.00877313	0.65744	-0.400843	0.254074	1.40391	1.5708	0	0	0.63936	-0.323682	0.343646	1.56078	1.5708	0	0
5.15	2.5653	1.34583	-1.02754	0.659589	-0.350418	0.94224	0.279979	0.0395795	-0.271322	0.375832	0.0774892	0	0	-0.412325	-0.0486898	-0.286705	0.0478132	0.134906	0	0	-0.460423	0.0330965	0.00323903	0.64692	-0.375568	0.0974185	1.50716	1.0719	0	0	0.646041	-0.322767	0.349105	1.55367	1.5708	0	0
5.16	2.56459	1.34376	-1.02872	0.659405	-0.348139	0.942098	0.283392	0.0425979	-0.269715	0.367562	0.0777513	0	0	-0.416122	-0.0494555	-0.292442	0.0497932	0.13706	0	0	-0.461297	0.0339652	-0.00143746	0.67646	-0.397419	0.268451	1.38289	1.5708	0	0	0.648491	-0.32537	0.345359	1.54893	1.5708	0	0
5.17	2.5514	1.35528	-1.0284	0.660363	-0.347114	0.940809	0.298491	0.0422698	-0.278074	0.34918	0.0722859	0	0	-0.403516	-0.0420063	-0.301043	0.0555898	0.139174	0	0	-0.453075	0.0261386	0.00637428	0.68763	-0.395399	0.272168	1.37304	1.5708	0	0	0.656093	-0.324373	0.344876	1.54272	1.5708	0	0
5.18	2.54756	1.35761	-1.02603	0.660488	-0.344683	0.940473	0.305371	0.0440219	-0.275637	0.340743	0.0724015	0	0	-0.401075	-0.0419507	-0.304916	0.0615016	0.141182	0	0	-0.4528	0.0256184	0.0096538	0.677692	-0.371276	0.113215	1.47485	1.07276	0	0	0.663994	-0.322639	0.349376	1.53617	1.5708	0	0
5.19	2.54703	1.35587	-1.0267	0.660264	-0.342254	0.940305	0.30732	0.0466392	-0.275034	0.331803	0.072376	0	0	-0.404973	-0.0425027	-0.309404	0.0628924	0.142555	0	0	-0.45351	0.0269023	0.00488029	0.707594	-0.392707	0.283497	1.35133	1.5708	0	0	0.666668	-0.325088	0.347094	1.5315	1.5708	0	0
5.2	2.54407	1.356	-1.02454	0.660213	-0.33968	0.940012	0.310937	0.0487127	-0.274483	0.322887	0.0726867	0	0	-0.406951	-0.0428794	-0.311732	0.0644961	0.144063	0	0	-0.453792	0.0278055	0.00448945	0.716639	-0.391658	0.288392	1.34167	1.5708	0	0	0.672832	-0.324108	0.348371	1.5248	1.5708	0	0
5.21	2.54036	1.35594	-1.02138	0.66012	-0.337052	0.93973	0.313604	0.0510599	-0.273432	0.312696	0.0728488	0	0	-0.40883	-0.0437307	-0.314895	0.0667586	0.1465	0	0	-0.45401	0.0293524	0.00366086	0.727121	-0.391625	0.29765	1.33111	1.5708	0	0	0.678644	-0.32284	0.348039	1.51753	1.5708	0	0
5.22	2.53688	1.35798	-1.01784	0.660185	-0.334276	0.939362	0.317944	0.0519708	-0.273978	0.303406	0.0731061	0	0	-0.408428	-0.0438461	-0.315123	0.0697965	0.148261	0	0	-0.453906	0.0297706	0.00642414	0.715441	-0.367765	0.134583	1.43489	1.08077	0	0	0.687065	-0.318742	0.351176	1.50909	1.5708	0	0
5.23	2.53677	1.35648	-1.01811	0.659947	-0.331505	0.939073	0.318695	0.0535038	-0.275593	0.295586	0.0732885	0	0	-0.412925	-0.0442635	-0.318507	0.0701441	0.149898	0	0	-0.454321	0.0317084	0.00177622	0.745651	-0.389919	0.309138	1.31454	1.5708	0	0	0.689674	-0.31947	0.346879	1.50323	1.5708	0	0
5.24	2.53383	1.35898	-1.01479	0.660067	-0.328522	0.93864	0.322639	0.0540281	-0.275999	0.287626	0.0735278	0	0	-0.412152	-0.044297	-0.318059	0.0736487	0.151881	0	0	-0.453651	0.0318208	0.00433526	0.733271	-0.367092	0.149711	1.41667	1.11945	0	0	0.697448	-0.315213	0.349118	1.49459	1.5708	0	0
5.25	2.54472	1.34274	-1.01269	0.658668	-0.324217	0.939698	0.309139	0.0587309	-0.267891	0.289548	0.0808477	0	0	-0.434472	-0.0550196	-0.313444	0.0690535	0.152182	0	0	-0.46578	0.0447909	-0.0093187	0.762121	-0.388644	0.322076	1.2978	1.5708	0	0	0.698435	-0.316037	0.344719	1.48862	1.5708	0	0
5.26	2.52784	1.35974	-1.00788	0.660011	-0.322408	0.937814	0.324753	0.0568027	-0.27691	0.269317	0.0736472	0	0	-0.416401	-0.0461345	-0.321491	0.0770376	0.156627	0	0	-0.453126	0.0349926	0.00235639	0.75043	-0.363611	0.141826	1.4015	0.906037	0	0	0.707471	-0.311243	0.347242	1.47905	1.5708	0	0
5.27	2.52533	1.36032	-1.00484	0.660013	-0.319259	0.937331	0.325469	0.0578094	-0.278193	0.26085	0.0735077	0	0	-0.4181	-0.0469604	-0.3237	0.0794236	0.15881	0	0	-0.45263	0.0365839	0.00136677	0.758697	-0.363069	0.149315	1.39295	0.926591	0	0	0.712266	-0.309031	0.345463	1.47126	1.5708	0	0
5.28	2.52419	1.35883	-1.00387	0.659947	-0.316088	0.936872	0.323744	0.0599934	-0.278333	0.253012	0.074396	0	0	-0.422569	-0.0479959	-0.325724	0.0808949	0.161328	0	0	-0.452609	0.0391721	-0.00312168	0.788801	-0.385178	0.340718	1.27254	1.5708	0	0	0.713929	-0.309635	0.339418	1.46564	1.5708	0	0
5.29	2.52168	1.35989	-1.00082	0.66004	-0.312724	0.93629	0.324225	0.0610197	-0.277667	0.245461	0.0768654	0	0	-0.424578	-0.0485407	-0.326037	0.0827167	0.163882	0	0	-0.451408	0.040422	-0.00399782	0.795901	-0.383941	0.345687	1.26581	1.5708	0	0	0.718203	-0.307614	0.337977	1.45894	1.5708	0	0
5.3	2.52204	1.35996	-1.00001	0.66004	-0.309296	0.935812	0.322369	0.0618685	-0.277091	0.236168	0.0783659	0	0	-0.428018	-0.0491657	-0.325707	0.0840857	0.166344	0	0	-0.451601	0.0420599	-0.00553807	0.804165	-0.382933	0.352801	1.25811	1.5708	0	0	0.722428	-0.306126	0.336522	1.45273	1.5708	0	0
